<svg width="168" height="168" xmlns="http://www.w3.org/2000/svg" data-parent="shape_SIISy1bXEW" preserveAspectRatio="none" class="style-removed" xml:space="preserve" enable-background="new 0 0 200 200" version="1.0">
 <defs>
  <linearGradient y2="0.106516" x2="0.759864" y1="1.056545" x1="0.11911" id="SVGID_1_">
   <stop stop-color="#2F318B" offset="0"/>
   <stop stop-color="#00A2E9" offset="1"/>
  </linearGradient>
 </defs>
 <g>
  <title>background</title>
  <rect fill="none" id="canvas_background" height="170" width="170" y="-1" x="-1"/>
 </g>
 <g>
  <title>Layer 1</title>
  <g id="_2591115837536">
   <path id="svg_1" stroke-width="0" d="m142.662822,116.44801c-0.4,1.2 -0.8,2.4 -1.3,3.5c-18.8,47.3 -64.6,58.4 -97.5,36.5c-32.6,-21.7 -38.8,-80 -17,-113.2c10.1,-15.4 23.1,-28.6 38.5,-35.8c41.4,-19.4 82.9,4.7 88.6,56c-5.7,-22.7 -34,-46.8 -71.6,-32.5c-39.2,14.9 -52.4,73.6 -21.5,90.1c16.1,6.7 31.8,-2.4 38.9,-20.4c3,-7.5 3.4,-15.3 1.8,-22.4c4.6,1.7 9.3,4.1 13.9,6.6l-1,13.2l10.1,5.7c0.9,-5.5 1,-9.5 0.8,-12.9c3.3,2.1 7.6,4.7 10.7,7c0.3,4.2 0.5,8.5 -0.7,13.8l7.3,4.8l0,0zm-5,-31.4l10.9,6.2l-1,13.4l-10.6,-6.1l0.7,-13.5zm-22.5,-16.5l10.9,6.2l-1,14l-10.9,-6.2l1,-14l0,0z" fill="url(#SVGID_1_)" clip-rule="evenodd" fill-rule="evenodd"/>
  </g>
 </g>
</svg>